{"title":"Californication S02 - Apple iPod Touch ready","uid":4692139,"size":1634683317,"categoryP":"video","categoryS":"tv_shows","magnet":"?xt=urn:btih:0fd13ccd6cd75d42403f2ce749b0663b0541877b&amp;dn=Californication+S02+-+Apple+iPod+Touch+ready&amp;tr=udp%3A%2F%2Ftracker.openbittorrent.com%3A80&amp;tr=udp%3A%2F%2Fopen.demonii.com%3A1337&amp;tr=udp%3A%2F%2Ftracker.coppersurfer.tk%3A6969&amp;tr=udp%3A%2F%2Fexodus.desync.com%3A6969","seeders":2,"leechers":0,"uploader":"for1234ret","files":12,"time":1233430431,"description":"CALIFORNICATION: SEASON 2\n-------------------------\nS02E01: 09/28/2008 - Slip of the Tongue\nS02E02: 10/05/2008 - The Great Ashby\nS02E03: 10/12/2008 - No Way to Treat a Lady\nS02E04: 10/19/2008 - The Raw &amp; the Cooked\nS02E05: 10/26/2008 - Vaginatown\nS02E06: 11/02/2008 - Coke Dick &amp; The First Kick\nS02E07: 11/09/2008 - In a Lonely Place \nS02E08: 11/16/2008 - Going Down and Out in Beverly Hills \nS02E09: 11/23/2008 - La Ronde \nS02E10: 11/30/2008 - In Utero \nS02E11: 12/07/2008 - Blues from Laurel Canyon \nS02E12: 12/14/2008 - La Petite Mort \n &lt;a href=&quot;\nhttp://www.tv.com/californication/show/68749/summary.html&quot; rel=&quot;nofollow&quot; target=&quot;_NEW&quot;&gt;\nhttp://www.tv.com/californication/show/68749/summary.html&lt;/a&gt;\n\n\nEncoded as: MPEG4 - bitrate: 621 kb/s\n    Stream #0.0(und): Video: h264, yuv420p, 480x320, 23.98 tb(r)\n    Stream #0.1(und): Audio: mpeg4aac, 48000 Hz, stereo","torrent":{"xt":"urn:btih:0fd13ccd6cd75d42403f2ce749b0663b0541877b","amp;dn":"Californication+S02+-+Apple+iPod+Touch+ready","amp;tr":["udp%3A%2F%2Ftracker.openbittorrent.com%3A80","udp%3A%2F%2Fopen.demonii.com%3A1337","udp%3A%2F%2Ftracker.coppersurfer.tk%3A6969","udp%3A%2F%2Fexodus.desync.com%3A6969"],"infoHash":"0fd13ccd6cd75d42403f2ce749b0663b0541877b","infoHashBuffer":{"type":"Buffer","data":[15,209,60,205,108,215,93,66,64,63,44,231,73,176,102,59,5,65,135,123]},"announce":[],"urlList":[]}}